<svg width="196" height="196" viewBox="0 0 196 196" fill="none" xmlns="http://www.w3.org/2000/svg">
<path d="M159.485 69.1292C157.712 61.0616 154.021 53.54 148.725 47.2007C145.898 43.857 142.453 40.6857 138.454 38.6277C126.142 32.293 104.911 45.6602 94.5935 52.528C84.2761 59.3959 76.5419 52.7044 63.8764 51.2971C51.2109 49.8899 35.7347 60.0936 35.033 76.2754C34.3314 92.4571 55.0838 105.119 50.862 113.907C46.6402 122.696 40.3094 136.067 63.5275 140.991C86.7457 145.914 98.3528 122.696 112.774 124.809C127.196 126.922 124.574 146.13 150.406 137.122C171.331 129.834 164.836 92.8491 159.485 69.1292Z" fill="#73BFDC"/>
<path opacity="0.7" d="M159.485 69.1292C157.712 61.0616 154.021 53.54 148.725 47.2007C145.898 43.857 142.453 40.6857 138.454 38.6277C126.142 32.293 104.911 45.6602 94.5935 52.528C84.2761 59.3959 76.5419 52.7044 63.8764 51.2971C51.2109 49.8899 35.7347 60.0936 35.033 76.2754C34.3314 92.4571 55.0838 105.119 50.862 113.907C46.6402 122.696 40.3094 136.067 63.5275 140.991C86.7457 145.914 98.3528 122.696 112.774 124.809C127.196 126.922 124.574 146.13 150.406 137.122C171.331 129.834 164.836 92.8491 159.485 69.1292Z" fill="white"/>
<path d="M95.0404 152.312C111.401 152.312 124.664 150.416 124.664 148.078C124.664 145.74 111.401 143.844 95.0404 143.844C78.6799 143.844 65.417 145.74 65.417 148.078C65.417 150.416 78.6799 152.312 95.0404 152.312Z" fill="#73BFDC"/>
<path opacity="0.5" d="M95.0404 152.312C111.401 152.312 124.664 150.416 124.664 148.078C124.664 145.74 111.401 143.844 95.0404 143.844C78.6799 143.844 65.417 145.74 65.417 148.078C65.417 150.416 78.6799 152.312 95.0404 152.312Z" fill="white"/>
<path d="M160.136 162.261C169.326 162.261 176.776 160.365 176.776 158.027C176.776 155.689 169.326 153.793 160.136 153.793C150.946 153.793 143.496 155.689 143.496 158.027C143.496 160.365 150.946 162.261 160.136 162.261Z" fill="#73BFDC"/>
<path opacity="0.5" d="M160.136 162.261C169.326 162.261 176.776 160.365 176.776 158.027C176.776 155.689 169.326 153.793 160.136 153.793C150.946 153.793 143.496 155.689 143.496 158.027C143.496 160.365 150.946 162.261 160.136 162.261Z" fill="white"/>
<path d="M155.263 151.414C153.844 152.45 152.347 153.377 150.787 154.185C148.94 155.036 148.584 155.036 148.654 155.534C148.725 156.032 150.857 156.812 154.765 155.891C158.674 154.969 160.52 155.177 161.088 153.331C161.657 151.484 160.736 151.982 159.599 151.982C158.145 151.869 156.698 151.679 155.263 151.414Z" fill="#2E353A" stroke="#2E353A" stroke-linecap="round" stroke-linejoin="round"/>
<path d="M160.877 153.821C159.211 154.26 156.209 154.997 153.7 155.389C152.052 155.687 150.359 155.612 148.745 155.169C148.701 155.217 148.67 155.275 148.654 155.338C148.639 155.401 148.639 155.467 148.655 155.53C148.725 156.028 150.858 156.808 154.766 155.887C158.286 155.06 160.129 155.142 160.877 153.821Z" fill="white" stroke="#2E353A" stroke-linecap="round" stroke-linejoin="round"/>
<path d="M174.44 117.486C174.44 117.486 174.585 119.975 172.872 123.386C171.159 126.796 166.134 127.079 164.785 127.079C163.437 127.079 163.86 125.659 163.86 125.659L164.072 124.378L161.798 123.809C161.798 123.809 155.762 131.841 155.762 132.48C155.762 133.119 162.002 147.788 162.359 149.493C162.716 151.198 162.927 151.626 162.143 152.265C161.562 152.674 160.895 152.945 160.193 153.056C159.491 153.167 158.773 153.114 158.094 152.903C157.039 152.573 156.016 152.146 155.04 151.626C155.001 150.987 155.001 150.347 155.04 149.709C155.111 149.07 156.177 149.568 155.679 148.501C155.181 147.435 154.895 147.149 154.613 146.439C154.331 145.73 147.608 134.527 147.894 131.896C148.18 129.266 154.484 120.136 154.484 119.925C154.749 119.259 155.057 118.611 155.405 117.984C155.405 117.984 155.687 117.059 156.401 116.918C157.114 116.777 167.98 116.918 170.752 116.565C173.523 116.212 174.872 116.349 174.44 117.486Z" fill="#73BFDC" stroke="#2E353A" stroke-linecap="round" stroke-linejoin="round"/>
<path d="M156.726 137.659L157.129 138.517" stroke="#2E353A" stroke-width="0.75" stroke-linecap="round" stroke-linejoin="round"/>
<path d="M157.996 127.91L154.93 131.916C154.93 131.916 151.01 132.39 152.186 132.469C153.362 132.547 154.538 132.547 154.538 132.547C154.538 132.547 153.515 132.861 153.754 133.017C154.03 133.127 154.324 133.181 154.621 133.174L156.295 136.734" stroke="#2E353A" stroke-width="0.75" stroke-linecap="round" stroke-linejoin="round"/>
<path d="M152.006 87.5728C152.006 87.5728 151.014 88.1216 149.521 88.9722C148.027 89.8228 147.169 90.2501 146.965 90.9636C146.761 91.677 142.414 100.575 142.414 100.575C142.414 100.575 144.119 101.571 145.683 102.281C146.871 102.769 148.11 103.127 149.375 103.347L150.798 100.364C150.798 100.364 153.542 105.546 154.718 107.396C156.812 110.701 156.137 112.727 155.855 113.864C155.573 115.001 154.789 117.133 155.001 117.416C155.212 117.698 160.755 120.187 164.311 119.975C167.866 119.764 173.958 119.435 174.385 118.937C174.812 118.439 174.883 115.569 174.883 115.354C174.883 115.138 174.256 109.599 173.617 106.259C172.978 102.92 169.497 93.9663 168.36 91.5516C167.223 89.1368 166.157 88.3528 163.264 87.3611C160.371 86.3693 156.087 86.1537 154.311 86.3654C152.535 86.5771 152.006 87.5728 152.006 87.5728Z" fill="#2E353A" stroke="#2E353A" stroke-linecap="round" stroke-linejoin="round"/>
<path d="M163.966 97.1023L168.368 98.5174L164.675 98.9094" stroke="white" stroke-width="0.75" stroke-linecap="round" stroke-linejoin="round"/>
<path d="M156.737 108.341C156.737 108.341 160.979 111.798 166.169 111.798" stroke="white" stroke-width="0.75" stroke-linecap="round" stroke-linejoin="round"/>
<path d="M158.153 111.485C158.153 111.485 161.681 113.135 165.303 112.586" stroke="white" stroke-width="0.75" stroke-linecap="round" stroke-linejoin="round"/>
<path d="M149.035 96.0047L150.799 100.364L147.071 94.9816" stroke="white" stroke-width="0.75" stroke-linecap="round" stroke-linejoin="round"/>
<path d="M151.704 88.0707C151.608 88.8719 151.585 89.68 151.634 90.4854C151.704 91.979 152.202 93.0452 151.775 94.1114C151.347 95.1777 151.849 95.6794 152.273 95.1777C152.696 94.6759 153.409 92.759 153.554 92.4062C153.699 92.0534 156.69 91.4106 157.106 91.4106C157.521 91.4106 158.882 93.543 159.521 93.8253C160.16 94.1075 160.018 93.543 159.591 92.4062C159.164 91.2694 158.67 87.3102 157.674 86.0794C156.679 84.8485 152.716 85.1582 151.704 88.0707Z" fill="white" stroke="#2E353A" stroke-linecap="round" stroke-linejoin="round"/>
<path d="M152.433 89.3486C152.041 89.2114 154.491 92.9746 155.487 94.8915C156.483 96.8083 157.404 96.3144 157.549 94.8209C157.694 93.3274 157.051 88.3529 157.051 88.3529C157.051 88.3529 154.491 90.062 152.433 89.3486Z" fill="white" stroke="#2E353A" stroke-linecap="round" stroke-linejoin="round"/>
<path d="M157.521 93.0333C156.605 93.4266 155.59 93.5305 154.613 93.3312C154.946 93.9036 155.256 94.4484 155.487 94.8992C156.483 96.8161 157.404 96.3222 157.549 94.8287C157.579 94.2303 157.57 93.6305 157.521 93.0333Z" fill="#73BFDC" stroke="#2E353A" stroke-linecap="round" stroke-linejoin="round"/>
<path d="M159.607 119.501V128.286" stroke="#2E353A" stroke-width="4" stroke-linecap="round" stroke-linejoin="round"/>
<path d="M167.141 121.481C167.101 121.485 167.06 121.485 167.02 121.481L153.805 119.913C153.544 119.871 153.308 119.73 153.148 119.519C152.988 119.307 152.916 119.042 152.946 118.779C152.977 118.515 153.109 118.274 153.314 118.106C153.518 117.937 153.78 117.854 154.045 117.874L167.259 119.442C167.525 119.464 167.773 119.589 167.948 119.79C168.124 119.992 168.213 120.254 168.198 120.521C168.183 120.788 168.064 121.038 167.866 121.218C167.669 121.398 167.408 121.494 167.141 121.485V121.481Z" fill="white" stroke="#2E353A" stroke-linecap="round" stroke-linejoin="round"/>
<path d="M167.2 121.155C167.553 121.155 167.839 120.818 167.839 120.403C167.839 119.987 167.553 119.65 167.2 119.65C166.847 119.65 166.561 119.987 166.561 120.403C166.561 120.818 166.847 121.155 167.2 121.155Z" fill="white" stroke="#2E353A" stroke-width="0.75" stroke-linecap="round" stroke-linejoin="round"/>
<path d="M155.201 158.215L163.123 162.116C163.169 162.136 163.218 162.146 163.268 162.146C163.318 162.146 163.368 162.136 163.413 162.116L168.168 160.356C168.236 160.33 168.295 160.286 168.337 160.227C168.38 160.168 168.404 160.099 168.406 160.026C168.409 159.954 168.39 159.883 168.352 159.821C168.313 159.76 168.258 159.711 168.192 159.681L160.767 156.243C160.691 156.208 160.606 156.2 160.524 156.22L155.279 157.533C155.206 157.55 155.14 157.589 155.09 157.646C155.04 157.702 155.009 157.772 155 157.847C154.991 157.921 155.006 157.997 155.042 158.063C155.078 158.129 155.134 158.182 155.201 158.215Z" fill="white" stroke="#2E353A" stroke-linecap="round" stroke-linejoin="round"/>
<path d="M161.504 159.513H159.936C159.58 159.512 159.239 159.37 158.987 159.118C158.735 158.866 158.593 158.524 158.592 158.168L157.608 129.434C157.608 129.111 157.736 128.801 157.965 128.572C158.194 128.344 158.504 128.215 158.827 128.215H160.65C160.973 128.215 161.283 128.344 161.512 128.572C161.741 128.801 161.869 129.111 161.869 129.434L162.853 158.168C162.853 158.345 162.818 158.52 162.75 158.684C162.682 158.847 162.583 158.995 162.458 159.12C162.332 159.245 162.184 159.344 162.02 159.411C161.857 159.479 161.681 159.513 161.504 159.513Z" fill="white" stroke="#2E353A" stroke-linecap="round" stroke-linejoin="round"/>
<path d="M165.354 158.517C164.162 159.637 162.904 160.684 161.587 161.653C160.019 162.719 159.881 162.578 160.238 163.288C160.595 163.997 161.657 164.424 164.644 163.785C167.631 163.147 168.623 162.649 170.258 161.724C171.892 160.798 172.386 160.798 171.963 160.23C171.54 159.662 165.354 158.517 165.354 158.517Z" fill="#2E353A" stroke="#2E353A" stroke-linecap="round" stroke-linejoin="round"/>
<path d="M170.258 161.716C171.888 160.791 172.386 160.791 171.963 160.222C171.851 160.117 171.717 160.038 171.571 159.991C169.405 161.271 167.111 162.322 164.727 163.127C161.669 164.048 160.179 162.982 160.179 162.982L160.144 163.041C160.175 163.118 160.21 163.194 160.25 163.268C160.603 163.977 161.669 164.405 164.656 163.766C167.643 163.127 168.623 162.641 170.258 161.716Z" fill="white" stroke="#2E353A" stroke-linecap="round" stroke-linejoin="round"/>
<path d="M176.589 101.712C176.08 100.6 175.63 99.4612 175.24 98.3019C174.048 98.8703 170.407 101.92 170.407 101.92L173.605 106.252C173.605 106.252 170.552 110.658 169.129 113.147C168.083 114.845 166.79 116.378 165.291 117.694L161.798 117.651C161.644 117.749 161.514 117.881 161.418 118.036C161.323 118.192 161.264 118.367 161.246 118.549C161.246 119.097 160.626 121.03 160.901 121.375C161.175 121.72 162.833 121.787 162.833 121.787C162.833 121.787 165.522 122.065 166.005 121.375C166.005 121.375 165.177 120.477 165.244 120.066C165.311 119.654 166.142 119.376 166.142 119.376L167.043 119.309C167.043 119.309 167.353 119.525 167.612 118.133C168.309 117.671 170.846 115.969 172.186 114.629C173.754 113.061 178.368 107.878 178.721 106.883C179.074 105.887 177.514 103.774 176.589 101.712Z" fill="white" stroke="#2E353A" stroke-linecap="round" stroke-linejoin="round"/>
<path d="M176.259 100.956C175.565 99.3289 175.24 98.3019 175.24 98.3019C174.048 98.8703 170.407 101.92 170.407 101.92L171.928 103.978C173.631 103.405 175.134 102.356 176.259 100.956Z" fill="#73BFDC" stroke="#2E353A" stroke-linecap="round" stroke-linejoin="round"/>
<path d="M166.428 96.5967L170.195 103.261L172.398 101.767C173.642 100.845 174.744 99.7448 175.667 98.5018C174.137 96.0783 172.427 93.7734 170.552 91.6065C167.565 88.1961 166.146 87.9844 164.868 88.055" fill="#2E353A"/>
<path d="M166.428 96.5967L170.195 103.261L172.398 101.767C173.642 100.845 174.744 99.7448 175.667 98.5018C174.137 96.0783 172.427 93.7734 170.552 91.6065C167.565 88.1961 166.146 87.9844 164.868 88.055" stroke="#2E353A" stroke-linecap="round" stroke-linejoin="round"/>
<path d="M157.247 119.729C157.247 119.45 156.071 116.557 156.071 116.557L152.543 114.617C151.089 111.693 148.855 107.012 148.47 106.189C148.184 105.618 147.945 105.024 147.757 104.413L148.357 103.135C147.446 102.933 146.556 102.647 145.699 102.281C145.037 101.983 144.354 101.634 143.786 101.328C143.472 102.528 142.935 104.593 143.139 105.621C143.343 106.648 147.98 112.52 150.297 115.487C150.297 115.487 151.265 119.591 151.681 120.211L152.096 120.83C152.096 120.83 152.782 121.591 153.127 121.52C153.424 121.427 153.703 121.286 153.955 121.105C154.2 121.185 154.459 121.209 154.715 121.175C155.051 121.03 155.355 120.82 155.609 120.556C155.609 120.556 155.954 120.948 156.785 120.763C157.616 120.579 157.247 120.003 157.247 119.729Z" fill="white" stroke="#2E353A" stroke-linecap="round" stroke-linejoin="round"/>
<path d="M143.354 103.033C144.684 103.934 146.215 104.494 147.812 104.664C147.761 104.511 147.741 104.433 147.741 104.433L148.341 103.155C147.43 102.953 146.54 102.667 145.683 102.3C145.02 102.002 144.338 101.653 143.77 101.348C143.645 101.802 143.472 102.406 143.354 103.033Z" fill="#73BFDC" stroke="#2E353A" stroke-linecap="round" stroke-linejoin="round"/>
<path d="M92.5122 121.849V119.45" stroke="#2E353A" stroke-width="6" stroke-linecap="round" stroke-linejoin="round"/>
<path d="M159.713 153.809L156.745 154.303C156.745 154.303 154.934 154.797 154.605 156.443C153.813 160.406 149.713 161.896 146.216 162.68C141.268 163.824 136.248 164.629 131.191 165.091C123.476 165.777 115.64 165.647 108 164.307C103.614 163.523 96.9261 162.676 93.6568 159.336C93.381 159.084 93.1733 158.765 93.0532 158.411C92.7905 157.447 93.6843 156.569 94.5467 156.059C96.1306 155.211 97.8188 154.575 99.5682 154.166C104.057 152.935 109.662 152.7 113.845 150.747C115.068 150.179 115.805 149.27 114.558 148.172C110.677 144.734 92.5122 144.127 92.5122 137.663V121.849" stroke="#2E353A" stroke-width="3" stroke-linecap="round" stroke-linejoin="round"/>
<path d="M148.835 84.4878C148.695 83.7446 148.449 83.0252 148.106 82.3514C147.62 81.5242 146.283 80.1915 146.04 78.9292C145.797 77.667 147.671 76.1852 147.671 76.1852C147.671 76.1852 146.647 76.1852 146.887 75.7462C147.126 75.3071 148.298 75.5031 148.298 75.5031C148.218 75.2746 148.199 75.0294 148.241 74.7912C148.284 74.553 148.387 74.3298 148.541 74.1429C149.074 73.5118 149.27 74.727 149.27 74.727C149.844 73.5503 150.736 72.5578 151.845 71.8615C153.594 70.8383 156.706 72.2535 157.047 73.1237C157.388 73.9939 156.565 73.696 156.565 73.696C156.565 73.696 160.744 75.5894 161.034 78.4C161.324 81.2106 158.897 80.7324 158.897 80.7324C158.897 80.7324 159.042 82.3866 158.701 82.9707C158.36 83.5548 158.215 83.7547 156.514 82.3866C154.813 81.0186 151.316 81.5125 151.12 82.5826C150.924 83.6528 150.336 85.2522 149.47 85.0601C148.603 84.868 148.835 84.4878 148.835 84.4878Z" fill="#2E353A" stroke="#2E353A" stroke-linecap="round" stroke-linejoin="round"/>
<path d="M151.238 78.0864C151.238 78.0864 149.556 76.636 151.391 76.3342C153.225 76.0323 153.907 79.3094 155.816 79.9954C156.995 80.3931 158.284 80.3114 159.403 79.7681" stroke="white" stroke-width="0.5" stroke-linecap="round" stroke-linejoin="round"/>
<path d="M150.952 77.8316C150.952 77.8316 149.027 76.5772 149.192 75.7384C149.356 74.8995 152.461 73.8097 154.135 74.8172C155.809 75.8246 155.895 77.9179 157.988 78.4196C160.081 78.9214 159.748 77.7493 159.497 77.4122" stroke="white" stroke-width="0.5" stroke-linecap="round" stroke-linejoin="round"/>
<path d="M147.267 79.2585C146.93 78.839 146.847 77.2475 148.188 76.9966C149.529 76.7458 150.618 78.1726 150.618 78.1726C150.364 78.3373 148.858 78.7567 148.607 80.015C148.356 81.2733 149.611 81.2694 149.027 82.367" stroke="white" stroke-width="0.5" stroke-linecap="round" stroke-linejoin="round"/>
<path d="M149.078 84.5191C149.078 84.5191 149.007 84.429 148.901 84.3192C148.643 84.0527 147.913 83.8606 147.69 84.3937C147.376 85.1503 148.231 86.585 148.866 86.7731C149.04 86.8311 149.225 86.8454 149.406 86.8146C149.586 86.7838 149.756 86.709 149.901 86.5967C149.901 86.5967 151.649 90.1247 153.848 90.9519C156.047 91.779 157.133 89.1761 157.827 87.4239C158.521 85.6716 158.266 85.0366 158.266 85.0366C158.266 85.0366 159.442 85.3149 159.807 83.9311C160.171 82.5474 159.587 82.0182 159.211 82.0809C158.857 82.1803 158.518 82.328 158.203 82.5199L157.639 81.0107C157.639 81.0107 156.569 81.6419 154.746 80.948C152.923 80.2542 152.041 78.5607 151.61 78.6862C151.179 78.8116 151.218 79.9406 151.218 79.9406C151.218 79.9406 150.403 79.5015 150.089 79.8779C149.775 80.2542 150.591 80.6971 150.215 82.0809C149.838 83.4647 149.391 83.888 149.391 83.888C149.391 83.888 149.705 84.5152 149.454 84.5152L149.078 84.5191Z" fill="white" stroke="#2E353A" stroke-linecap="round" stroke-linejoin="round"/>
<path d="M152.716 83.5979C152.775 83.8645 152.696 84.1036 152.547 84.135C152.398 84.1663 152.226 83.9821 152.155 83.7155C152.085 83.4489 152.175 83.2098 152.328 83.1785C152.481 83.1471 152.661 83.3353 152.716 83.5979Z" fill="#2E353A"/>
<path d="M155.73 83.253C155.73 83.5234 155.62 83.7508 155.463 83.7547C155.307 83.7586 155.177 83.543 155.169 83.2725C155.161 83.0021 155.275 82.7786 155.432 82.7747C155.589 82.7708 155.718 82.9825 155.73 83.253Z" fill="#2E353A"/>
<path d="M151.128 82.7474C151.237 82.4854 151.413 82.2565 151.638 82.0832C151.862 81.91 152.129 81.7984 152.41 81.7595" stroke="#2E353A" stroke-linecap="round" stroke-linejoin="round"/>
<path d="M154.899 81.5791C155.181 81.5112 155.476 81.5269 155.749 81.6244C156.022 81.7219 156.261 81.8968 156.436 82.1279" stroke="#2E353A" stroke-linecap="round" stroke-linejoin="round"/>
<path d="M155.409 87.1769C155.409 87.1769 153.253 87.9805 152.19 86.4791" stroke="#2E353A" stroke-linecap="round" stroke-linejoin="round"/>
<path d="M152.88 87.1416C152.88 87.1416 152.955 88.6038 153.723 88.8977C154.491 89.1917 154.856 87.3298 154.856 87.3298C154.192 87.4279 153.514 87.3633 152.88 87.1416Z" fill="#2E353A" stroke="#2E353A" stroke-linecap="round" stroke-linejoin="round"/>
<path d="M153.057 88.0315C153.1 88.2155 153.182 88.3881 153.297 88.5376C153.413 88.6871 153.56 88.8099 153.727 88.8978C154.119 89.0507 154.421 88.6077 154.609 88.153C154.114 87.9634 153.575 87.9212 153.057 88.0315Z" fill="white" stroke="#2E353A" stroke-linecap="round" stroke-linejoin="round"/>
<path d="M154.789 82.0887C154.559 82.8754 154.545 83.7097 154.75 84.5035C155.118 85.6403 155.667 85.6795 155.448 85.8206C155.228 85.9617 154.272 86.1499 154.056 85.9695" fill="white"/>
<path d="M154.789 82.0887C154.559 82.8754 154.545 83.7097 154.75 84.5035C155.118 85.6403 155.667 85.6795 155.448 85.8206C155.228 85.9617 154.272 86.1499 154.056 85.9695" stroke="#2E353A" stroke-linecap="round" stroke-linejoin="round"/>
<path d="M163.719 122.892C163.719 122.892 159.677 132.551 159.544 134.683C159.411 136.816 165.503 155.036 165.644 155.82C165.785 156.604 164.652 156.459 164.652 157.239C164.666 157.78 164.786 158.312 165.005 158.807C165.075 159.019 170.689 160.724 171.614 160.795C172.539 160.865 172.962 160.653 172.962 160.011C172.962 159.368 172.539 157.38 172.539 157.169C172.539 156.957 173.676 155.601 173.248 153.688C172.821 151.775 168.846 139.658 168.348 138.376C167.851 137.094 167.282 135.75 167.282 135.75C167.501 135.43 167.647 135.066 167.709 134.683C167.753 134.353 167.753 134.018 167.709 133.688C167.709 133.688 173.868 123.821 173.876 120.752" fill="#73BFDC"/>
<path d="M163.719 122.892C163.719 122.892 159.677 132.551 159.544 134.683C159.411 136.816 165.503 155.036 165.644 155.82C165.785 156.604 164.652 156.459 164.652 157.239C164.666 157.78 164.786 158.312 165.005 158.807C165.075 159.019 170.689 160.724 171.614 160.795C172.539 160.865 172.962 160.653 172.962 160.011C172.962 159.368 172.539 157.38 172.539 157.169C172.539 156.957 173.676 155.601 173.248 153.688C172.821 151.775 168.846 139.658 168.348 138.376C167.851 137.094 167.282 135.75 167.282 135.75C167.501 135.43 167.647 135.066 167.709 134.683C167.753 134.353 167.753 134.018 167.709 133.688C167.709 133.688 173.868 123.821 173.876 120.752" stroke="#2E353A" stroke-linecap="round" stroke-linejoin="round"/>
<path d="M168.031 143.319C169.638 148.36 171.535 154.362 171.669 155.255C171.904 156.823 171.433 157.145 171.59 157.929C171.747 158.713 172.061 159.814 172.061 159.814" stroke="#2E353A" stroke-width="0.75" stroke-linecap="round" stroke-linejoin="round"/>
<path d="M171.586 121.912C170.363 124.895 168.113 130.399 167.666 131.532C167.035 133.1 165.934 134.362 166.173 134.519C166.412 134.676 167.035 134.676 166.565 135.224C166.094 135.773 165.781 135.934 165.781 136.169C165.781 136.251 166.502 138.501 167.435 141.43" stroke="#2E353A" stroke-width="0.75" stroke-linecap="round" stroke-linejoin="round"/>
<path d="M172.374 119.972L171.982 120.956" stroke="#2E353A" stroke-width="0.75" stroke-linecap="round" stroke-linejoin="round"/>
<path d="M161.81 121.587C161.81 121.587 162.037 119.066 162.269 118.76" stroke="#2E353A" stroke-width="0.75" stroke-linecap="round" stroke-linejoin="round"/>
<path d="M163.645 118.776C163.645 118.776 162.633 122.018 162.833 121.81" stroke="#2E353A" stroke-width="0.75" stroke-linecap="round" stroke-linejoin="round"/>
<path d="M164.409 118.988L163.95 121.434C163.95 121.434 163.872 121.665 164.562 121.74" stroke="#2E353A" stroke-width="0.75" stroke-linecap="round" stroke-linejoin="round"/>
<path d="M155.593 120.556L155.162 120.058" stroke="#2E353A" stroke-width="0.75" stroke-linecap="round" stroke-linejoin="round"/>
<path d="M153.939 121.104L153.555 120.822" stroke="#2E353A" stroke-width="0.75" stroke-linecap="round" stroke-linejoin="round"/>
<path d="M153.111 121.52L152.562 120.669" stroke="#2E353A" stroke-width="0.75" stroke-linecap="round" stroke-linejoin="round"/>
<path d="M129.36 111.591C131.818 108.926 133.973 105.997 135.785 102.857" stroke="#2E353A" stroke-linecap="round" stroke-linejoin="round"/>
<path d="M97.6079 127.086C108.906 126.171 119.526 121.323 127.619 113.386" stroke="#2E353A" stroke-linecap="round" stroke-linejoin="round"/>
<path d="M86.4126 126.722C87.9848 126.958 89.5678 127.115 91.1558 127.192" stroke="#2E353A" stroke-linecap="round" stroke-linejoin="round"/>
<path d="M71.583 121.128C72.5891 121.651 73.6096 122.138 74.6445 122.59" stroke="#2E353A" stroke-linecap="round" stroke-linejoin="round"/>
<path d="M45.6758 82.3671C46.3672 89.9893 48.8435 97.3417 52.9045 103.829C56.9654 110.316 62.4967 115.757 69.0507 119.709" stroke="#2E353A" stroke-linecap="round" stroke-linejoin="round"/>
<path d="M121.003 38.808C114.082 34.0215 106.039 31.1087 97.6587 30.353C89.2778 29.5974 80.8442 31.0247 73.1787 34.496" stroke="#2E353A" stroke-linecap="round" stroke-linejoin="round"/>
<path d="M138.156 59.0156C137.673 57.918 137.15 56.8439 136.588 55.7933" stroke="#2E353A" stroke-linecap="round" stroke-linejoin="round"/>
<path d="M119.396 112.426C122.018 110.477 124.415 108.242 126.542 105.762" stroke="#2E353A" stroke-linecap="round" stroke-linejoin="round"/>
<path d="M88.6626 120.889C98.834 121.955 109.057 119.421 117.553 113.727" stroke="#2E353A" stroke-linecap="round" stroke-linejoin="round"/>
<path d="M78.792 118.705C80.1352 119.168 81.5112 119.569 82.9198 119.909" stroke="#2E353A" stroke-linecap="round" stroke-linejoin="round"/>
<path d="M51.1323 89.8425C51.4276 90.8225 51.7556 91.7895 52.1162 92.7433" stroke="#2E353A" stroke-linecap="round" stroke-linejoin="round"/>
<path d="M59.8388 48.6942C55.3527 53.9429 52.1655 60.1742 50.5351 66.8836C48.9047 73.593 48.8771 80.592 50.4543 87.3141" stroke="#2E353A" stroke-linecap="round" stroke-linejoin="round"/>
<path d="M111.677 37.436C104.788 34.2437 97.1897 32.8908 89.6225 33.5091C82.0552 34.1274 74.7773 36.6958 68.498 40.964" stroke="#2E353A" stroke-linecap="round" stroke-linejoin="round"/>
<path d="M134.029 61.199C130.43 52.0622 123.882 44.3896 115.424 39.3999" stroke="#2E353A" stroke-linecap="round" stroke-linejoin="round"/>
<path d="M135.922 67.2672C135.679 66.2127 135.393 65.1739 135.071 64.1508" stroke="#2E353A" stroke-linecap="round" stroke-linejoin="round"/>
<path d="M134.119 77.6983C134.119 77.1809 134.581 76.6556 134.562 76.1303C134.542 75.605 134.04 75.1229 134.005 74.6133C133.97 74.1037 134.397 73.5392 134.334 73.0453C134.272 72.5513 133.739 72.0809 133.664 71.5713C133.59 71.0617 133.97 70.4737 133.872 69.9681C133.774 69.4624 133.209 69.0508 133.088 68.549C132.966 68.0473 133.307 67.4318 133.178 66.934C133.049 66.4361 132.445 66.0716 132.292 65.5777C132.139 65.0837 132.429 64.4448 132.261 63.9626C132.092 63.4805 131.477 63.1551 131.277 62.6769C131.077 62.1986 131.328 61.5361 131.124 61.0657C130.92 60.5953 130.269 60.3209 130.046 59.8584C129.822 59.3958 130.011 58.7177 129.771 58.2629C129.532 57.8082 128.866 57.5887 128.595 57.1418C128.325 56.6949 128.478 56.0089 128.203 55.5738C127.929 55.1387 127.247 54.9662 126.957 54.5429C126.667 54.1195 126.753 53.4217 126.447 53.0062C126.142 52.5907 125.452 52.4731 125.13 52.0693C124.809 51.6656 124.844 50.9678 124.507 50.5758C124.17 50.1838 123.472 50.1172 123.123 49.7409C122.774 49.3645 122.755 48.6629 122.39 48.2983C122.026 47.9337 121.324 47.9063 120.948 47.5653C120.571 47.2242 120.501 46.5186 120.113 46.1815C119.725 45.8444 119.019 45.8797 118.619 45.5582C118.219 45.2368 118.094 44.5469 117.682 44.2411C117.271 43.9353 116.573 44.0216 116.146 43.7315C115.718 43.4414 115.55 42.7593 115.111 42.4849C114.672 42.2105 113.99 42.3517 113.543 42.0929C113.096 41.8342 112.876 41.1717 112.422 40.9169C111.967 40.6621 111.289 40.866 110.826 40.6425C110.364 40.4191 110.093 39.7723 109.619 39.5645C109.144 39.3568 108.49 39.5998 108.008 39.4117C107.525 39.2235 107.224 38.6002 106.722 38.4277C106.22 38.2553 105.601 38.5493 105.107 38.3964C104.613 38.2435 104.248 37.6477 103.751 37.5144C103.253 37.3811 102.641 37.7182 102.135 37.6006C101.63 37.483 101.226 36.9185 100.716 36.8166C100.207 36.7147 99.6267 37.1028 99.1132 37.0244C98.5996 36.946 98.1567 36.4129 97.6432 36.3541C97.1296 36.2953 96.573 36.7225 96.0752 36.6833C95.5773 36.6441 95.0717 36.1463 94.5542 36.1267C94.0368 36.1071 93.5193 36.5736 92.9862 36.5736C92.4531 36.5736 91.9474 36.1071 91.4182 36.1267C90.889 36.1463 90.4108 36.6481 89.8973 36.6833C89.3837 36.7186 88.8271 36.2913 88.3293 36.3541C87.8314 36.4168 87.3649 36.9499 86.8592 37.0244C86.3536 37.0989 85.7617 36.7186 85.256 36.8166C84.7503 36.9146 84.3387 37.4791 83.8369 37.6006C83.3352 37.7221 82.7197 37.3811 82.2219 37.5144C81.7241 37.6477 81.3556 38.2435 80.8656 38.3964C80.3756 38.5493 79.7327 38.2592 79.2466 38.4277C78.7605 38.5963 78.4626 39.2117 77.9648 39.4117C77.4669 39.6116 76.824 39.3607 76.3536 39.5645C75.8832 39.7684 75.6088 40.4191 75.1463 40.6425C74.6837 40.866 74.0056 40.6778 73.5509 40.9169C73.0961 41.1561 72.8727 41.8225 72.4297 42.0929C71.9868 42.3634 71.2929 42.2145 70.8617 42.4849C70.4305 42.7554 70.2541 43.4375 69.8308 43.7276C69.4074 44.0177 68.7097 43.9314 68.2941 44.2372C67.8786 44.5429 67.761 45.2329 67.3573 45.5582C66.9535 45.8836 66.2557 45.8405 65.8637 46.1776C65.4717 46.5147 65.4051 47.2125 65.0288 47.5613C64.6525 47.9102 63.9508 47.9298 63.5862 48.2944C63.2217 48.6589 63.1942 49.3606 62.8532 49.7369C62.5121 50.1133 61.8183 50.176 61.4812 50.568C61.1441 50.96 61.1793 51.6577 60.8579 52.0615C60.5365 52.4653 59.8465 52.5829 59.5408 52.9984C59.235 53.4139 59.3213 54.1077 59.0312 54.5311C58.7411 54.9545 58.059 55.1269 57.7846 55.566C57.5102 56.005 57.6513 56.6871 57.3926 57.134C57.1339 57.5809 56.4675 57.8004 56.2166 58.259C55.9657 58.7177 56.1657 59.388 55.9422 59.8505C55.7188 60.3131 55.072 60.5875 54.8642 61.0579C54.6565 61.5283 54.8995 62.1869 54.7113 62.669C54.5232 63.1512 53.896 63.453 53.7274 63.9548C53.5589 64.4565 53.845 65.0759 53.6961 65.5698C53.5471 66.0637 52.9434 66.4283 52.8101 66.9261C52.6769 67.424 53.014 68.0394 52.9003 68.5412C52.7866 69.0429 52.2182 69.4506 52.1163 69.9602C52.0144 70.4698 52.4064 71.0539 52.328 71.5635C52.2496 72.0731 51.7165 72.52 51.6577 73.0374C51.5989 73.5549 52.0261 74.1037 51.9869 74.6054C51.9477 75.1072 51.446 75.605 51.4303 76.1225C51.4146 76.6399 51.8733 77.1613 51.8733 77.6905C51.8733 78.2197 51.4107 78.7293 51.4303 79.2585C51.4499 79.7877 51.9517 80.2659 51.9869 80.7794C52.0222 81.2929 51.5949 81.8496 51.6577 82.3474C51.7204 82.8453 52.2535 83.3117 52.328 83.8174C52.4025 84.3231 52.0222 84.9189 52.1163 85.4246C52.2104 85.9303 52.7827 86.338 52.9003 86.8397C53.0179 87.3415 52.6769 87.9609 52.8101 88.4548C52.9434 88.9487 53.5432 89.3211 53.6961 89.8111C53.8489 90.3011 53.5589 90.944 53.7274 91.4301C53.896 91.9161 54.5114 92.2337 54.7113 92.7158C54.9113 93.198 54.6604 93.8526 54.8642 94.323C55.0681 94.7934 55.7188 95.0678 55.9422 95.5304C56.1657 95.9929 55.9736 96.6711 56.2166 97.1258C56.4597 97.5805 57.1221 97.804 57.3926 98.2509C57.6631 98.6977 57.5102 99.3837 57.7846 99.8189C58.059 100.254 58.7411 100.426 59.0312 100.85C59.3213 101.273 59.235 101.971 59.5408 102.386C59.8465 102.802 60.5365 102.92 60.8579 103.323C61.1793 103.727 61.1441 104.429 61.4812 104.817C61.8183 105.205 62.5161 105.275 62.8649 105.656C63.2138 106.036 63.2334 106.734 63.598 107.098C63.9625 107.463 64.6642 107.49 65.0405 107.827C65.4169 108.165 65.4874 108.878 65.8755 109.211C66.2636 109.544 66.9653 109.513 67.369 109.834C67.7728 110.156 67.8943 110.846 68.3059 111.152C68.7175 111.457 69.4153 111.371 69.8425 111.661C70.2698 111.951 70.4384 112.633 70.8774 112.908C71.3165 113.182 71.9985 113.041 72.4454 113.3C72.8923 113.558 73.1118 114.225 73.5665 114.476C74.0212 114.727 74.6955 114.527 75.162 114.75C75.6285 114.974 75.895 115.62 76.3693 115.828C76.8437 116.036 77.4983 115.793 77.9804 115.981C78.4626 116.169 78.7645 116.796 79.2662 116.965C79.768 117.133 80.3873 116.847 80.8813 116.996C81.3752 117.145 81.7397 117.749 82.2376 117.882C82.7354 118.016 83.3469 117.678 83.8526 117.792C84.3583 117.906 84.7621 118.474 85.2716 118.576C85.7812 118.678 86.3614 118.286 86.8749 118.364C87.3884 118.443 87.8314 118.976 88.3449 119.035C88.8584 119.093 89.4151 118.666 89.9129 118.705C90.4108 118.745 90.9165 119.246 91.4339 119.266C91.9513 119.286 92.4688 118.819 93.0019 118.819C93.535 118.819 94.0446 119.282 94.5699 119.266C95.0952 119.25 95.5773 118.745 96.0869 118.705C96.5965 118.666 97.161 119.097 97.6549 119.035C98.1488 118.972 98.6192 118.439 99.1288 118.364C99.6385 118.29 100.226 118.67 100.732 118.576C101.238 118.482 101.649 117.91 102.151 117.792C102.653 117.674 103.268 118.016 103.766 117.882C104.264 117.749 104.633 117.149 105.123 116.996C105.613 116.843 106.255 117.133 106.741 116.965C107.228 116.796 107.545 116.181 108.023 115.981C108.502 115.781 109.164 116.036 109.634 115.828C110.105 115.62 110.379 114.974 110.842 114.75C111.304 114.527 111.983 114.719 112.437 114.476C112.892 114.233 113.115 113.57 113.558 113.3C114.001 113.029 114.691 113.182 115.126 112.908C115.561 112.633 115.734 111.951 116.157 111.661C116.581 111.371 117.278 111.457 117.694 111.152C118.109 110.846 118.227 110.156 118.631 109.834C119.035 109.513 119.732 109.548 120.124 109.211C120.516 108.874 120.583 108.176 120.959 107.827C121.336 107.479 122.037 107.459 122.402 107.094C122.766 106.73 122.794 106.032 123.135 105.652C123.476 105.272 124.182 105.205 124.519 104.817C124.856 104.429 124.821 103.727 125.142 103.323C125.463 102.92 126.153 102.802 126.459 102.386C126.765 101.971 126.679 101.277 126.969 100.85C127.259 100.423 127.941 100.254 128.215 99.8189C128.49 99.3837 128.349 98.6938 128.607 98.2509C128.866 97.8079 129.528 97.5845 129.783 97.1297C130.038 96.675 129.834 96.0008 130.058 95.5343C130.281 95.0678 130.928 94.8013 131.136 94.3269C131.343 93.8526 131.1 93.198 131.289 92.7158C131.477 92.2337 132.1 91.9318 132.272 91.434C132.445 90.9361 132.151 90.3089 132.304 89.815C132.457 89.3211 133.056 88.9605 133.19 88.4587C133.323 87.9569 132.986 87.3493 133.1 86.8437C133.213 86.338 133.782 85.9342 133.884 85.4285C133.985 84.9229 133.597 84.3349 133.676 83.8213C133.754 83.3078 134.287 82.8649 134.346 82.3513C134.405 81.8378 133.978 81.2812 134.017 80.7833C134.056 80.2855 134.554 79.7798 134.573 79.2624C134.593 78.7449 134.119 78.2157 134.119 77.6983Z" fill="#73BFDC" stroke="#2E353A" stroke-width="2" stroke-linecap="round" stroke-linejoin="round"/>
<path d="M80.6895 38.5571L81.4147 40.5877" stroke="#2E353A" stroke-width="2" stroke-linecap="round" stroke-linejoin="round"/>
<path d="M77.9297 39.6469L78.5843 41.2423" stroke="#2E353A" stroke-width="2" stroke-linecap="round" stroke-linejoin="round"/>
<path d="M128.439 57.2085C127.253 58.2255 125.904 59.0353 124.448 59.6036" stroke="#2E353A" stroke-width="2" stroke-linecap="round" stroke-linejoin="round"/>
<path d="M129.889 59.8937C129.349 60.2355 128.792 60.5495 128.219 60.8345" stroke="#2E353A" stroke-width="2" stroke-linecap="round" stroke-linejoin="round"/>
<path d="M69.6582 111.72C69.6582 111.72 71.3987 109.76 71.6888 108.31" stroke="#2E353A" stroke-width="2" stroke-linecap="round" stroke-linejoin="round"/>
<path d="M64.7935 107.714C64.7935 107.714 66.2478 105.903 66.5379 105.613" stroke="#2E353A" stroke-width="2" stroke-linecap="round" stroke-linejoin="round"/>
<path d="M102.096 117.584L101.516 114.393" stroke="#2E353A" stroke-width="2" stroke-linecap="round" stroke-linejoin="round"/>
<path d="M105.287 116.934L104.852 115.119" stroke="#2E353A" stroke-width="2" stroke-linecap="round" stroke-linejoin="round"/>
<path d="M118.568 109.748L116.103 106.989" stroke="#2E353A" stroke-width="2" stroke-linecap="round" stroke-linejoin="round"/>
<path d="M130.179 95.5226L126.479 93.5665" stroke="#2E353A" stroke-width="2" stroke-linecap="round" stroke-linejoin="round"/>
<path d="M52.1675 77.7454L55.2878 77.8159" stroke="#2E353A" stroke-width="2" stroke-linecap="round" stroke-linejoin="round"/>
<path d="M56.5928 77.8904L58.1177 77.9609" stroke="#2E353A" stroke-width="2" stroke-linecap="round" stroke-linejoin="round"/>
<path d="M56.1577 95.7421C56.5223 95.5971 58.9017 94.9581 58.9017 94.9581" stroke="#2E353A" stroke-width="2" stroke-linecap="round" stroke-linejoin="round"/>
<path d="M102.12 37.6633C101.9 38.1024 101.461 40.6308 101.461 40.6308" stroke="#2E353A" stroke-width="2" stroke-linecap="round" stroke-linejoin="round"/>
<path d="M104.974 38.6512L104.645 40.3016" stroke="#2E353A" stroke-width="2" stroke-linecap="round" stroke-linejoin="round"/>
<path d="M116.287 44.0333L115.409 45.1309" stroke="#2E353A" stroke-width="2" stroke-linecap="round" stroke-linejoin="round"/>
<path d="M58.9565 54.5781L61.1517 55.7855" stroke="#2E353A" stroke-width="2" stroke-linecap="round" stroke-linejoin="round"/>
<path d="M62.4731 56.4441L64.2293 57.4319" stroke="#2E353A" stroke-width="2" stroke-linecap="round" stroke-linejoin="round"/>
<path d="M104.621 65.7149C104.621 65.7149 103.95 64.6761 100.563 62.5397C97.1766 60.4033 88.4115 58.3728 84.958 56.5068C81.5044 54.5821 77.655 50.9522 76.3104 49.2078C74.9659 47.4634 75.1736 46.1463 74.0917 46.0404C73.0098 45.9346 71.9279 46.4324 71.1752 48.6982C70.4226 50.964 71.3438 56.6401 71.9592 58.3845C72.5747 60.1289 74.3818 61.2344 75.5304 61.6969C76.6789 62.1595 79.2465 63.3786 79.2426 64.4723C79.2387 65.566 79.1015 65.7816 78.6272 65.8639C78.1528 65.9462 67.7256 67.4907 66.1184 67.9572C64.5112 68.4236 63.8174 71.3519 64.276 73.6608C64.7347 75.9696 66.5536 76.6948 66.0048 78.3334C65.456 79.972 64.5112 81.8928 65.4442 84.0684C66.3772 86.244 68.1294 85.9068 67.4473 87.5964C66.7652 89.2859 66.7574 91.2616 67.6276 92.5316C68.4979 93.8017 69.6464 94.6249 69.6386 96.1655C69.6308 97.706 72.3199 101.097 74.0094 101.579C74.8444 101.83 82.4256 102.661 89.807 102.735C97.1844 102.924 104.362 102.343 104.35 102.343C104.439 90.1261 104.529 77.9166 104.621 65.7149Z" fill="white" stroke="#2E353A" stroke-width="3" stroke-linecap="round" stroke-linejoin="round"/>
<path d="M119.352 101.199C114.962 101.863 110.556 102.351 106.134 102.665C105.848 102.677 105.562 102.63 105.296 102.525C105.03 102.42 104.789 102.261 104.588 102.057C104.387 101.853 104.232 101.609 104.131 101.341C104.031 101.073 103.988 100.787 104.005 100.501C104.05 89.4701 104.094 78.4444 104.138 67.424C104.127 67.1343 104.175 66.8454 104.278 66.5743C104.38 66.3032 104.537 66.0556 104.737 65.8461C104.937 65.6366 105.178 65.4695 105.444 65.3547C105.71 65.2399 105.997 65.1797 106.287 65.1779C110.708 65.3033 115.114 65.4823 119.505 65.7149C120.077 65.7554 120.612 66.0106 121.004 66.4293C121.396 66.8481 121.615 67.3994 121.618 67.9728C121.571 78.2145 121.525 88.464 121.481 98.7213C121.463 99.3156 121.242 99.886 120.855 100.337C120.467 100.788 119.937 101.092 119.352 101.199Z" fill="#2E353A" stroke="#2E353A" stroke-width="3" stroke-linecap="round" stroke-linejoin="round"/>
<path d="M109.537 98.7174C109.547 98.5021 109.513 98.287 109.435 98.0859C109.358 97.8849 109.239 97.7023 109.086 97.5501C108.933 97.3979 108.751 97.2794 108.549 97.2023C108.348 97.1251 108.133 97.0911 107.918 97.1023C107.464 97.1511 107.045 97.3674 106.743 97.709C106.441 98.0505 106.277 98.4926 106.283 98.9486C106.27 99.165 106.303 99.3817 106.38 99.5844C106.456 99.7872 106.575 99.9715 106.728 100.125C106.881 100.279 107.064 100.398 107.267 100.476C107.469 100.554 107.686 100.587 107.902 100.575C108.355 100.52 108.771 100.3 109.073 99.9573C109.374 99.6148 109.539 99.1735 109.537 98.7174Z" fill="white" stroke="#2E353A" stroke-width="3" stroke-linecap="round" stroke-linejoin="round"/>
<path d="M104.484 61.6773C108.831 61.6773 112.355 58.1532 112.355 53.8059C112.355 49.4587 108.831 45.9346 104.484 45.9346C100.136 45.9346 96.6123 49.4587 96.6123 53.8059C96.6123 58.1532 100.136 61.6773 104.484 61.6773Z" fill="white"/>
<path d="M117.751 65.4589C118.893 64.3169 118.893 62.4653 117.751 61.3233C116.609 60.1813 114.758 60.1813 113.616 61.3233C112.474 62.4653 112.474 64.3169 113.616 65.4589C114.758 66.6009 116.609 66.6009 117.751 65.4589Z" fill="white"/>
<path opacity="0.2" d="M90.058 117.463C90.5519 117.498 91.0223 117.984 91.5241 118.004C92.0258 118.023 92.5276 117.573 93.0254 117.573C93.5233 117.573 94.0329 118.019 94.5307 118.004C95.0286 117.988 95.5029 117.498 95.9968 117.463C96.4907 117.427 97.0317 117.855 97.5256 117.78C98.0195 117.706 98.4586 117.208 98.9486 117.133C99.4386 117.059 100.011 117.427 100.517 117.337C101.022 117.247 101.402 116.694 101.885 116.585C102.367 116.475 102.967 116.8 103.453 116.671C103.939 116.542 104.288 115.965 104.762 115.816C105.236 115.667 105.856 115.95 106.33 115.785C106.804 115.62 107.114 115.001 107.573 114.836C108.031 114.672 108.674 114.887 109.141 114.687C109.607 114.487 109.858 113.864 110.317 113.645C110.775 113.425 111.418 113.613 111.857 113.382C112.296 113.151 112.512 112.504 112.943 112.257C113.374 112.01 114.041 112.139 114.46 111.865C114.879 111.591 115.048 110.94 115.46 110.662C115.871 110.383 116.542 110.466 116.941 110.168C117.341 109.87 117.459 109.203 117.847 108.894C118.235 108.584 118.913 108.619 119.289 108.294C119.666 107.969 119.732 107.294 120.097 106.957C120.462 106.62 121.14 106.6 121.492 106.248C121.845 105.895 121.861 105.221 122.198 104.856C122.535 104.491 123.213 104.425 123.539 104.045C123.864 103.664 123.829 102.994 124.138 102.602C124.448 102.21 125.115 102.096 125.412 101.697C125.71 101.297 125.624 100.626 125.906 100.215C126.189 99.8032 126.843 99.6385 127.106 99.2152C127.369 98.7918 127.239 98.1293 127.498 97.6981C127.757 97.2669 128.392 97.0553 128.623 96.6162C128.854 96.1772 128.674 95.5225 128.89 95.0757C129.105 94.6288 129.732 94.3661 129.932 93.8997C130.132 93.4332 129.897 92.8099 130.081 92.3317C130.265 91.8534 130.865 91.5477 131.03 91.089C131.194 90.6304 130.912 90.0032 131.061 89.521C131.21 89.0389 131.786 88.6939 131.916 88.2117C132.045 87.7296 131.716 87.1377 131.83 86.6437C131.943 86.1498 132.488 85.7657 132.582 85.2757C132.676 84.7857 132.304 84.2212 132.378 83.7077C132.453 83.1941 132.97 82.7786 133.025 82.2847C133.08 81.7908 132.668 81.2537 132.708 80.752C132.747 80.2502 133.229 79.7877 133.245 79.2859C133.26 78.7841 132.813 78.2824 132.813 77.7845C132.813 77.2867 133.264 76.7771 133.245 76.2793C133.225 75.7814 132.743 75.3071 132.708 74.8132C132.672 74.3193 133.08 73.7783 133.025 73.2844C132.97 72.7905 132.449 72.3514 132.378 71.8614C132.308 71.3714 132.672 70.7991 132.582 70.2934C132.492 69.7877 131.939 69.4075 131.83 68.9253C131.807 68.8184 131.801 68.7088 131.81 68.6C104.213 92.12 69.8739 90.305 54.237 87.8707C54.2302 87.9721 54.2395 88.074 54.2645 88.1725C54.3938 88.6547 54.9701 89.0075 55.119 89.4818C55.268 89.9561 54.9858 90.5755 55.1504 91.0498C55.315 91.5241 55.9344 91.8338 56.099 92.2885C56.2637 92.7433 56.0481 93.3901 56.248 93.8565C56.4479 94.323 57.0712 94.5778 57.2907 95.0325C57.5102 95.4873 57.3221 96.1341 57.5534 96.5731C57.7846 97.0121 58.4314 97.2277 58.6784 97.6589C58.9254 98.0901 58.796 98.7526 59.0704 99.1721C59.3448 99.5915 59.9955 99.7601 60.2738 100.172C60.5522 100.583 60.4698 101.254 60.7678 101.657C61.0657 102.061 61.7321 102.171 62.0418 102.563C62.3514 102.955 62.3162 103.625 62.6415 104.005C62.9669 104.386 63.6411 104.448 63.9782 104.813C64.3154 105.177 64.335 105.856 64.6878 106.208C65.0406 106.561 65.7148 106.573 66.0794 106.914C66.4439 107.255 66.5106 107.925 66.8908 108.251C67.271 108.576 67.9414 108.541 68.3334 108.851C68.7254 109.16 68.839 109.831 69.2389 110.125C69.6387 110.419 70.309 110.336 70.7206 110.618C71.1322 110.901 71.2969 111.555 71.7202 111.822C72.1436 112.088 72.8061 111.951 73.2373 112.214C73.6685 112.477 73.8802 113.104 74.3192 113.339C74.7582 113.574 75.4129 113.386 75.8598 113.605C76.3066 113.825 76.5693 114.444 77.0358 114.644C77.5022 114.844 78.1255 114.609 78.6038 114.793C79.082 114.977 79.3878 115.577 79.8464 115.742C80.305 115.907 80.9322 115.628 81.4144 115.773C81.8966 115.918 82.2415 116.498 82.7237 116.628C83.2058 116.757 83.7978 116.432 84.2917 116.542C84.7856 116.651 85.1737 117.2 85.6637 117.294C86.1537 117.388 86.7182 117.016 87.2121 117.09C87.706 117.165 88.1411 117.682 88.635 117.737C89.129 117.792 89.5562 117.427 90.058 117.463Z" fill="black"/>
</svg>
